<?xml version="1.0" standalone="no"?>
<!DOCTYPE svg PUBLIC "-//W3C//DTD SVG 20010904//EN"
 "http://www.w3.org/TR/2001/REC-SVG-20010904/DTD/svg10.dtd">
<svg version="1.0" xmlns="http://www.w3.org/2000/svg"
 width="500.000000pt" height="500.000000pt" viewBox="0 0 500.000000 500.000000"
 preserveAspectRatio="xMidYMid meet">
<metadata>
Created by potrace 1.15, written by Peter Selinger 2001-2017
</metadata>
<g transform="translate(0.000000,500.000000) scale(0.100000,-0.100000)"
fill="#000000" stroke="none">
<path d="M1210 3360 c0 -7 437 -10 1290 -10 853 0 1290 3 1290 10 0 7 -437 10
-1290 10 -853 0 -1290 -3 -1290 -10z"/>
<path d="M1263 3259 c-18 -5 -40 -21 -50 -35 -21 -33 -29 -164 -14 -222 18
-65 45 -77 164 -76 122 2 150 17 155 82 3 42 3 42 -30 42 -30 0 -35 -4 -43
-32 -10 -33 -11 -33 -78 -36 -42 -2 -74 2 -83 9 -10 8 -14 37 -14 104 0 106 5
115 73 122 53 6 97 -10 97 -36 0 -21 14 -29 50 -27 22 1 25 6 23 35 -2 59 -30
76 -131 78 -48 1 -102 -2 -119 -8z"/>
<path d="M1597 3264 c-4 -4 -7 -81 -7 -171 l0 -163 40 0 40 0 0 70 0 70 90 0
90 0 0 -70 0 -70 40 0 40 0 -2 168 -3 167 -37 3 -38 3 0 -70 0 -71 -90 0 -89
0 -3 68 c-3 67 -3 67 -33 70 -17 2 -34 0 -38 -4z"/>
<path d="M2072 3168 c-22 -57 -52 -133 -66 -170 l-25 -68 38 0 c34 0 40 4 50
30 l10 30 90 0 89 0 7 -30 c6 -27 10 -30 46 -30 21 0 39 2 39 5 0 6 -93 243
-117 298 -16 36 -17 37 -69 37 l-52 0 -40 -102z"/>
<path d="M2400 3100 l0 -170 40 0 40 0 0 55 0 55 69 0 c61 0 72 -3 85 -22 9
-12 16 -37 16 -55 0 -31 2 -33 35 -33 l35 0 0 48 c0 51 -5 64 -33 79 -17 9
-17 11 7 27 23 15 26 23 26 76 0 97 -26 110 -211 110 l-109 0 0 -170z m238 98
c7 -7 12 -27 12 -44 0 -47 -29 -64 -107 -64 l-63 0 0 60 0 60 73 0 c43 0 78
-5 85 -12z"/>
<path d="M2770 3240 l0 -30 60 0 60 0 0 -140 0 -140 35 0 35 0 0 140 0 139 58
3 c54 3 57 4 60 31 l3 27 -155 0 -156 0 0 -30z"/>
<path d="M3130 3100 l0 -170 135 0 135 0 0 25 0 25 -101 0 -100 0 3 48 3 47
69 -3 c88 -4 116 3 116 28 0 17 -9 20 -92 22 l-93 3 -3 43 -3 42 100 0 101 0
0 30 0 30 -135 0 -135 0 0 -170z"/>
<path d="M3470 3100 l0 -170 40 0 40 0 0 55 0 55 68 0 c40 0 73 -5 80 -12 7
-7 12 -31 12 -55 l0 -43 40 0 c40 0 40 0 40 38 0 54 -10 81 -31 87 -22 7 -25
25 -4 25 8 0 19 9 25 19 12 23 13 110 2 128 -19 29 -81 43 -197 43 l-115 0 0
-170z m240 91 c16 -30 12 -59 -10 -81 -16 -16 -33 -20 -85 -20 l-65 0 0 60 0
60 75 0 c63 0 76 -3 85 -19z"/>
<path d="M1210 2850 c0 -7 437 -10 1290 -10 853 0 1290 3 1290 10 0 7 -437 10
-1290 10 -853 0 -1290 -3 -1290 -10z"/>
<path d="M2179 2630 c-17 -60 -18 -60 -94 -45 l-40 7 39 -41 40 -41 -32 -33
c-18 -18 -32 -36 -32 -41 0 -7 37 -2 82 10 13 4 21 -8 34 -51 19 -59 28 -57
39 7 4 21 10 40 14 42 4 3 31 -1 59 -9 29 -7 52 -10 52 -7 0 3 -17 23 -37 44
l-37 38 39 41 40 41 -45 -7 c-25 -4 -51 -8 -59 -9 -8 -1 -20 21 -30 54 l-17
55 -15 -55z"/>
<path d="M3370 2625 c-14 -58 -19 -61 -68 -44 -44 15 -61 8 -36 -17 49 -51 49
-51 10 -98 l-36 -44 52 14 c29 7 56 10 59 6 4 -4 14 -29 22 -57 l15 -50 17 58
c16 55 19 58 42 52 14 -3 39 -9 57 -12 l31 -6 -40 42 -39 41 39 41 40 42 -31
-6 c-18 -3 -43 -9 -57 -12 -23 -6 -26 -3 -41 49 -9 31 -18 56 -20 56 -1 0 -9
-25 -16 -55z"/>
<path d="M1579 2620 c-7 -27 -15 -50 -18 -50 -3 0 -30 7 -59 14 l-53 14 36
-39 c19 -21 35 -45 35 -52 0 -7 -16 -28 -35 -47 -19 -18 -33 -35 -32 -36 2 -2
25 3 52 11 26 8 51 15 55 15 4 0 13 -25 20 -55 15 -61 25 -63 35 -7 10 63 15
66 74 49 28 -8 51 -12 51 -9 0 3 -17 23 -37 44 l-37 38 44 45 43 44 -54 -14
c-30 -8 -57 -15 -61 -15 -4 0 -13 20 -19 45 -6 25 -15 48 -19 50 -5 3 -14 -17
-21 -45z"/>
<path d="M2771 2619 c-12 -47 -15 -50 -38 -44 -14 3 -39 9 -57 12 l-31 6 40
-42 39 -41 -37 -38 c-20 -21 -37 -41 -37 -44 0 -3 21 0 47 8 25 8 50 14 54 14
4 0 13 -22 20 -50 7 -27 16 -50 20 -50 4 0 13 23 20 51 12 46 15 50 37 44 13
-3 38 -9 56 -12 l31 -6 -38 42 -39 43 43 44 42 43 -48 -14 c-26 -8 -53 -15
-60 -15 -6 0 -17 23 -24 50 -7 28 -16 50 -20 50 -4 0 -13 -23 -20 -51z"/>
<path d="M1852 2163 c357 -2 939 -2 1295 0 357 1 65 2 -647 2 -712 0 -1004 -1
-648 -2z"/>
<path d="M3083 2080 c-45 -10 -61 -26 -69 -66 -8 -41 11 -90 39 -106 12 -6 62
-13 111 -16 97 -5 116 -12 116 -46 0 -35 -15 -48 -63 -53 -72 -8 -116 3 -123
32 -5 21 -12 25 -45 25 -33 0 -39 -3 -39 -21 0 -62 53 -89 175 -89 136 0 175
25 175 114 0 63 -24 77 -146 87 -52 4 -99 11 -104 14 -6 3 -10 20 -10 36 0 35
32 52 95 48 49 -3 75 -15 75 -34 0 -11 12 -15 40 -15 36 0 40 3 40 25 0 32
-33 61 -78 69 -49 8 -149 6 -189 -4z"/>
<path d="M3507 2081 c-51 -11 -68 -30 -74 -83 -9 -78 38 -107 183 -108 64 0
84 -11 84 -46 0 -34 -37 -54 -98 -54 -62 0 -92 13 -92 40 0 17 -7 20 -41 20
-39 0 -40 -1 -37 -32 5 -48 42 -70 132 -76 154 -10 216 18 216 98 0 23 -5 50
-10 60 -12 23 -68 40 -130 40 -85 0 -120 10 -126 36 -12 47 39 72 123 59 33
-5 47 -12 50 -26 8 -28 83 -28 83 0 0 11 -10 32 -23 47 -21 24 -30 27 -112 30
-50 1 -107 -1 -128 -5z"/>
<path d="M1212 1913 l3 -168 35 0 35 0 5 70 5 70 93 3 c90 3 92 3 92 27 0 25
-1 25 -95 25 l-95 0 0 45 0 45 100 0 100 0 0 25 0 25 -140 0 -140 0 2 -167z"/>
<path d="M1582 1913 l3 -168 35 0 35 0 3 168 2 167 -40 0 -40 0 2 -167z"/>
<path d="M1730 2055 c0 -24 2 -25 65 -25 l65 0 0 -146 0 -145 38 3 37 4 3 142
3 142 58 0 c50 0 59 3 64 19 3 11 2 22 -1 25 -3 3 -79 6 -169 6 l-163 0 0 -25z"/>
<path d="M2133 1924 c-1 -85 1 -162 3 -169 4 -9 19 -13 42 -12 l36 2 -2 145
-3 145 72 -110 c39 -60 82 -127 95 -147 l24 -38 70 2 70 1 0 169 0 168 -42 0
-43 0 3 -142 3 -143 -93 142 -93 143 -70 0 -70 0 -2 -156z"/>
<path d="M2640 1910 l0 -170 148 3 147 2 0 25 c0 25 -1 25 -107 28 l-108 3 0
44 0 45 100 0 100 0 0 25 0 25 -100 0 -100 0 0 45 0 45 105 0 105 0 0 25 0 25
-145 0 -145 0 0 -170z"/>
<path d="M1210 1660 c0 -7 437 -10 1290 -10 853 0 1290 3 1290 10 0 7 -437 10
-1290 10 -853 0 -1290 -3 -1290 -10z"/>
</g>
</svg>
